<svg width="300" height="300" viewBox="0 0 300 300" fill="none" xmlns="http://www.w3.org/2000/svg">
<path d="M147.553 21.4526V234.188L181.95 242.141L252.648 265.122L252.943 52.072L147.553 21.4526Z" fill="#BABABA"/>
<path d="M44.9668 53.2643L147.555 21.4526L146.165 256.157L103.22 246.316L45.6798 266.315L44.9668 53.2643Z" fill="#565656"/>
<path d="M8.70103 42.9458L8.40063 254.983L45.6776 266.316V133.607L110.095 287.193L149.163 299.421V86.7849L110.989 73.961L111.287 207.269L45.6776 52.9846L8.70103 42.9458Z" fill="white"/>
<path d="M8.70044 42.9449L148.864 0L288.434 41.4522L287.539 254.982L252.647 265.123L184.352 148.218L183.756 288.98L149.162 299.419V86.7839L110.988 73.9601L147.605 61.7991L184.054 73.5953L250.327 172.607L250.99 53.1839L147.471 21.9016L45.677 52.9836L8.70044 42.9449Z" fill="#363636"/>
</svg>
